#!OML:ASF F:\VICON\USERDATA\INSTALL\rory3\rory3.ASF
:FULLY-SPECIFIED
:DEGREES
955
root 6.38032 17.8712 -10.6633 -5.65826 56.6023 -22.9308
lowerback 26.4534 2.41574 -8.55693
upperback 7.73985 0.996238 -4.42412
thorax -6.02205 0.693863 -0.312634
lowerneck -22.7783 -4.72184 -13.0303
upperneck 16.5209 -5.69764 16.0295
head 9.88875 -1.69728 7.06385
rclavicle -4.77083e-014 -1.43125e-014
rhumerus -35.2008 4.20935 -87.3636
rradius 43.082
rwrist -5.05967
rhand -17.1667 10.1592
rfingers 7.12502
rthumb 9.07453 -19.6256
lclavicle -4.77083e-014 -1.43125e-014
lhumerus -6.44599 -1.45216 60.5624
lradius 33.7719
lwrist 7.83958
lhand -22.5758 32.9126
lfingers 7.12502
lthumb 3.85272 62.8576
rfemur -17.1881 -23.6584 26.941
rtibia 45.1183
rfoot 1.47381 -12.6899
rtoes 4.92209
lfemur -40.6812 5.14828 -8.53422
ltibia 29.7331
lfoot 1.18446 9.89019
ltoes 4.96523
956
root 6.33561 17.861 -10.6788 -5.22375 56.0206 -21.6764
lowerback 26.203 2.45499 -8.6615
upperback 7.54934 1.01998 -4.37239
thorax -6.11623 0.704478 -0.200609
lowerneck -22.7356 -5.03989 -13.2161
upperneck 16.5766 -6.13272 16.1866
head 9.98764 -1.89648 7.08948
rclavicle -9.85972e-014 6.36111e-015
rhumerus -35.3648 3.86425 -87.2299
rradius 42.8457
rwrist -4.94288
rhand -16.9599 10.0429
rfingers 7.12502
rthumb 9.27402 -19.7331
lclavicle -9.85972e-014 6.36111e-015
lhumerus -7.31027 -0.65655 60.7148
lradius 33.5344
lwrist 8.02416
lhand -22.078 31.8508
lfingers 7.12502
lthumb 4.33344 61.7864
rfemur -16.7275 -24.3821 26.5347
rtibia 44.8977
rfoot 0.903001 -13.9455
rtoes 5.01025
lfemur -39.9689 5.15664 -8.87434
ltibia 29.8503
lfoot 1.04654 10.4642
ltoes 5.78656
957
root 6.30552 17.8506 -10.6953 -4.78009 55.0603 -20.3822
lowerback 25.8266 2.5387 -8.79389
upperback 7.37757 1.10614 -4.36842
thorax -6.12943 0.742278 -0.140327
lowerneck -22.6421 -5.27197 -13.3475
upperneck 16.5353 -6.45635 16.3261
head 10.0231 -2.04483 7.11119
rclavicle 7.95139e-015 -1.27222e-014
rhumerus -35.5484 3.70879 -87.1252
rradius 42.6636
rwrist -4.79373
rhand -17.1355 10.0356
rfingers 7.12502
rthumb 9.10463 -19.7479
lclavicle 7.95139e-015 -1.27222e-014
lhumerus -8.34997 0.173612 60.7307
lradius 33.4399
lwrist 8.19293
lhand -21.9469 31.4001
lfingers 7.12502
lthumb 4.46005 61.3331
rfemur -16.1474 -24.7171 26.0213
rtibia 44.61
rfoot 0.27655 -15.1108
rtoes 4.97053
lfemur -39.134 5.25658 -9.1045
ltibia 30.106
lfoot 0.711976 11.3011
ltoes 7.0311
958
root 6.28325 17.8345 -10.7113 -4.82486 53.8269 -19.8878
lowerback 25.1614 2.58805 -8.44277
upperback 7.18498 1.29881 -4.29531
thorax -6.02803 0.822722 -0.29674
lowerneck -22.4601 -5.46064 -13.3793
upperneck 16.4573 -6.741 16.3887
head 10.0163 -2.18063 7.08936
rclavicle 6.67916e-014 6.36111e-015
rhumerus -35.6414 3.66102 -87.1164
rradius 42.3675
rwrist -4.77995
rhand -17.505 10.046
rfingers 7.12502
rthumb 8.74802 -19.7527
lclavicle 6.67916e-014 6.36111e-015
lhumerus -9.44374 0.854583 60.626
lradius 33.4393
lwrist 8.41292
lhand -21.9266 31.4946
lfingers 7.12502
lthumb 4.47969 61.4272
rfemur -15.6621 -24.8241 26.0557
rtibia 44.3372
rfoot -0.790644 -16.1383
rtoes 6.60034
lfemur -38.4994 5.8023 -8.9088
ltibia 30.4461
lfoot 0.361513 11.866
ltoes 8.38856
959
root 6.25742 17.8112 -10.7338 -5.19712 52.5479 -19.9576
lowerback 24.6029 2.47627 -7.51888
upperback 6.86514 1.38184 -4.34783
thorax -6.10273 0.853308 -0.886499
lowerneck -22.4585 -5.67228 -13.162
upperneck 16.7028 -7.1399 16.3742
head 10.1634 -2.34936 6.99025
rclavicle -1.27222e-014 2.54444e-014
rhumerus -35.7986 3.57111 -87.4521
rradius 42.0541
rwrist -4.84808
rhand -17.311 10.0125
rfingers 7.12502
rthumb 8.93523 -19.7783
lclavicle -1.27222e-014 2.54444e-014
lhumerus -10.6144 1.40677 60.1335
lradius 33.4843
lwrist 8.65328
lhand -21.7152 31.6513
lfingers 7.12502
lthumb 4.68379 61.5795
rfemur -15.3506 -24.8793 26.5083
rtibia 44.1009
rfoot -2.08939 -17.0559
rtoes 8.11316
lfemur -38.0802 6.68061 -8.49894
ltibia 30.7449
lfoot 0.334965 12.0766
ltoes 8.08473
960
root 6.22012 17.7921 -10.7594 -4.82713 51.4227 -18.8945
lowerback 24.4631 2.35781 -7.21157
upperback 6.50913 1.24823 -4.63112
thorax -6.41498 0.791348 -1.33745
lowerneck -22.726 -5.90105 -12.9634
upperneck 17.3207 -7.57769 16.3839
head 10.5013 -2.51749 6.91415
rclavicle -6.99722e-014 1.59028e-014
rhumerus -36.0305 3.38956 -87.8546
rradius 41.8194
rwrist -4.61128
rhand -16.7292 9.91638
rfingers 7.12502
rthumb 9.49664 -19.8496
lclavicle -6.99722e-014 1.59028e-014
lhumerus -11.797 2.37279 59.5136
lradius 33.3623
lwrist 8.59015
lhand -21.7086 31.7725
lfingers 7.12502
lthumb 4.69017 61.7006
rfemur -15.0022 -24.8587 26.127
rtibia 43.9105
rfoot -3.15569 -17.9858
rtoes 9.94655
lfemur -37.4609 7.21716 -8.78633
ltibia 30.9485
lfoot 0.388839 12.5446
ltoes 6.89782
961
root 6.1823 17.7807 -10.7771 -3.97154 50.454 -16.9036
lowerback 24.3648 2.45546 -7.73984
upperback 6.30192 1.21456 -4.84473
thorax -6.59494 0.783205 -1.26879
lowerneck -22.6668 -6.12439 -13.0336
upperneck 17.4264 -7.93138 16.5466
head 10.6025 -2.66827 6.93348
rclavicle 8.74653e-014 -3.18055e-015
rhumerus -36.2352 3.20768 -87.9066
rradius 41.5828
rwrist -4.22786
rhand -16.5137 9.84473
rfingers 7.12502
rthumb 9.70452 -19.9117
lclavicle 8.74653e-014 -3.18055e-015
lhumerus -12.7387 3.48523 59.3108
lradius 33.0589
lwrist 8.31876
lhand -21.899 31.8741
lfingers 7.12502
lthumb 4.50633 61.8062
rfemur -14.3824 -24.8535 24.9363
rtibia 43.8007
rfoot -3.93191 -18.7221
rtoes 12.2786
lfemur -36.489 7.43629 -9.6804
ltibia 31.0113
lfoot 0.501968 13.1825
ltoes 5.64178
962
root 6.14633 17.7724 -10.7746 -3.67323 49.4734 -15.6112
lowerback 23.9891 2.61435 -8.13935
upperback 6.20852 1.35046 -4.82755
thorax -6.51798 0.847643 -1.05361
lowerneck -22.4412 -6.33856 -13.2511
upperneck 17.1497 -8.23543 16.8802
head 10.5452 -2.80045 7.0359
rclavicle -5.725e-014 5.725e-014
rhumerus -36.312 2.96081 -87.8357
rradius 41.2588
rwrist -3.96099
rhand -17.1686 9.92436
rfingers 7.12502
rthumb 9.07268 -19.8605
lclavicle -5.725e-014 5.725e-014
lhumerus -13.5881 4.23088 59.2225
lradius 32.8749
lwrist 8.3346
lhand -22.1443 32.1464
lfingers 7.12502
lthumb 4.26947 62.0834
rfemur -13.6131 -24.6991 24.2054
rtibia 43.6616
rfoot -4.63234 -19.4175
rtoes 14.9841
lfemur -35.4133 7.83833 -10.1007
ltibia 30.9623
lfoot 0.574961 13.5605
ltoes 5.10119
963
root 6.1127 17.7561 -10.8055 -3.40429 48.3283 -14.6506
lowerback 23.6269 2.6036 -8.0049
upperback 6.02143 1.37687 -4.85476
thorax -6.54138 0.855848 -1.15776
lowerneck -22.544 -6.57488 -13.7364
upperneck 17.2599 -8.54192 17.4229
head 10.7163 -2.91037 7.2876
rclavicle -3.97569e-014 4.45278e-014
rhumerus -36.2614 2.82269 -87.7356
rradius 40.9465
rwrist -3.82349
rhand -18.0296 9.87035
rfingers 7.12502
rthumb 8.24173 -19.9489
lclavicle -3.97569e-014 4.45278e-014
lhumerus -14.6159 5.03548 58.9942
lradius 32.8054
lwrist 8.40067
lhand -22.1114 32.224
lfingers 7.12502
lthumb 4.30122 62.1603
rfemur -13.2933 -24.4607 23.7429
rtibia 43.5032
rfoot -5.13582 -20.0978
rtoes 16.2058
lfemur -34.651 7.77216 -10.2047
ltibia 30.9375
lfoot 0.65279 14.5373
ltoes 5.50767
964
root 6.07481 17.74 -10.8277 -3.34948 47.1612 -13.813
lowerback 23.368 2.63105 -7.98576
upperback 5.8758 1.42451 -4.79619
thorax -6.57464 0.875402 -1.11182
lowerneck -22.7772 -6.74437 -14.0597
upperneck 17.5017 -8.75965 17.7547
head 10.9257 -2.98328 7.45155
rclavicle 4.29375e-014 2.22639e-014
rhumerus -36.2228 2.68665 -87.6
rradius 40.7177
rwrist -3.60076
rhand -18.1416 9.6542
rfingers 7.12502
rthumb 8.13371 -20.1693
lclavicle 4.29375e-014 2.22639e-014
lhumerus -15.5465 6.26347 58.7837
lradius 32.4949
lwrist 7.99513
lhand -21.7663 31.6492
lfingers 7.12502
lthumb 4.63439 61.5786
rfemur -12.7425 -24.1991 23.3373
rtibia 43.242
rfoot -6.04218 -20.7579
rtoes 15.3026
lfemur -33.8079 7.82485 -10.2231
ltibia 31.006
lfoot 0.687136 15.2967
ltoes 6.05577
965
root 6.03776 17.7246 -10.8473 -3.36765 45.9941 -13.0038
lowerback 23.1452 2.71464 -7.98601
upperback 5.76683 1.5423 -4.72005
thorax -6.5886 0.928701 -1.05619
lowerneck -22.5748 -6.95438 -14.1397
upperneck 17.389 -9.05204 17.7802
head 10.908 -3.13157 7.41603
rclavicle 2.70347e-014 -6.67916e-014
rhumerus -36.1986 2.59273 -87.4312
rradius 40.4669
rwrist -3.38776
rhand -17.7585 9.42342
rfingers 7.12502
rthumb 8.50342 -20.3854
lclavicle 2.70347e-014 -6.67916e-014
lhumerus -16.3862 7.20609 58.6205
lradius 32.2172
lwrist 7.86682
lhand -21.8082 31.301
lfingers 7.12502
lthumb 4.59393 61.2311
rfemur -12.1048 -23.9577 22.8984
rtibia 42.9319
rfoot -6.89519 -21.2568
rtoes 15.3998
lfemur -32.92 7.84559 -10.2094
ltibia 31.1193
lfoot 0.311717 16.2003
ltoes 8.24346
966
root 6.00015 17.7088 -10.8701 -3.21053 44.8832 -12.1059
lowerback 22.8414 2.75559 -8.04154
upperback 5.64657 1.60158 -4.63937
thorax -6.57201 0.954206 -0.944348
lowerneck -21.9014 -7.34876 -14.1684
upperneck 16.9168 -9.55445 17.4597
head 10.684 -3.43843 7.17783
rclavicle 7.95139e-015 -1.90833e-014
rhumerus -36.1445 2.5533 -87.2025
rradius 40.2669
rwrist -3.28289
rhand -17.4484 9.36732
rfingers 7.12502
rthumb 8.80262 -20.4291
lclavicle 7.95139e-015 -1.90833e-014
lhumerus -17.3513 8.04687 58.4455
lradius 32.0782
lwrist 7.87943
lhand -21.7619 31.0744
lfingers 7.12502
lthumb 4.63871 61.0036
rfemur -11.5862 -23.7953 22.4114
rtibia 42.5409
rfoot -7.63364 -21.7292
rtoes 16.1187
lfemur -32.1971 7.81496 -10.313
ltibia 31.2482
lfoot -0.30012 17.1801
ltoes 10.9305
967
root 5.96314 17.6944 -10.8899 -3.07258 43.7598 -11.3397
lowerback 22.4678 2.74855 -7.92682
upperback 5.49221 1.63779 -4.62074
thorax -6.55094 0.966905 -0.987291
lowerneck -21.7991 -7.42014 -13.5441
upperneck 16.875 -9.76695 17.0296
head 10.6251 -3.54372 6.85867
rclavicle -1.74931e-014 8.5875e-014
rhumerus -36.1769 2.20177 -87.1187
rradius 40.1089
rwrist -3.18208
rhand -17.2582 9.40962
rfingers 7.12502
rthumb 8.98615 -20.379
lclavicle -1.74931e-014 8.5875e-014
lhumerus -18.1877 9.01557 58.1188
lradius 31.7182
lwrist 7.68634
lhand -21.4894 30.8104
lfingers 7.12502
lthumb 4.90177 60.7337
rfemur -11.1478 -23.5732 22.0603
rtibia 42.1056
rfoot -8.6742 -22.5338
rtoes 15.1424
lfemur -31.5673 7.84083 -10.3577
ltibia 31.3553
lfoot -0.547714 17.9456
ltoes 12.148
